<?xml version="1.0" encoding="UTF-8"?>
<svg id="Capa_1" data-name="Capa 1" xmlns="http://www.w3.org/2000/svg" viewBox="0 0 20.25 20.25">
  <path d="M10.5,20.25C4.71,20.25,0,15.54,0,9.75,0,5.5,2.53,1.69,6.46,.06c.28-.12,.6-.05,.82,.16,.21,.21,.28,.54,.16,.82-.46,1.1-.69,2.26-.69,3.46,0,4.96,4.04,9,9,9h.01c1.19,0,2.35-.23,3.45-.69,.28-.12,.6-.05,.82,.16,.22,.21,.28,.54,.16,.82-1.64,3.92-5.44,6.46-9.69,6.46ZM5.49,2.27C3.02,3.92,1.5,6.7,1.5,9.75c0,4.96,4.04,9,9,9,3.05,0,5.83-1.52,7.48-3.99-.72,.16-1.46,.24-2.21,.24h-.02c-5.79,0-10.5-4.71-10.5-10.5,0-.76,.08-1.5,.24-2.23Z"/>
</svg>