<?xml version="1.0" encoding="UTF-8"?>
<svg id="Capa_1" data-name="Capa 1" xmlns="http://www.w3.org/2000/svg" viewBox="0 0 20.25 20.25">
  <path d="M10.13,20.25c-.43,0-.78-.35-.78-.78v-2.34c0-.43,.35-.78,.78-.78s.78,.35,.78,.78v2.34c0,.43-.35,.78-.78,.78Zm-6.61-2.74c-.2,0-.4-.08-.55-.23-.3-.3-.3-.8,0-1.1l1.65-1.65c.3-.3,.8-.3,1.1,0s.3,.8,0,1.1l-1.65,1.65c-.15,.15-.35,.23-.55,.23Zm13.22,0c-.2,0-.4-.08-.55-.23l-1.65-1.65c-.3-.3-.3-.8,0-1.1s.8-.3,1.1,0l1.65,1.65c.3,.3,.3,.8,0,1.1-.15,.15-.35,.23-.55,.23Zm-6.61-2.71c-2.58,0-4.67-2.1-4.67-4.67s2.1-4.67,4.67-4.67,4.67,2.1,4.67,4.67-2.1,4.67-4.67,4.67Zm0-7.79c-1.72,0-3.12,1.4-3.12,3.12s1.4,3.12,3.12,3.12,3.12-1.4,3.12-3.12-1.4-3.12-3.12-3.12Zm9.35,3.89h-2.34c-.43,0-.78-.35-.78-.78s.35-.78,.78-.78h2.34c.43,0,.78,.35,.78,.78s-.35,.78-.78,.78Zm-16.36,0H.78c-.43,0-.78-.35-.78-.78s.35-.78,.78-.78H3.12c.43,0,.78,.35,.78,.78s-.35,.78-.78,.78ZM15.08,5.95c-.2,0-.4-.08-.55-.23-.3-.3-.3-.8,0-1.1l1.65-1.65c.3-.3,.8-.3,1.1,0s.3,.8,0,1.1l-1.65,1.65c-.15,.15-.35,.23-.55,.23Zm-9.91,0c-.2,0-.4-.08-.55-.23l-1.65-1.65c-.3-.3-.3-.8,0-1.1s.8-.3,1.1,0l1.65,1.65c.3,.3,.3,.8,0,1.1-.15,.15-.35,.23-.55,.23Zm4.96-2.05c-.43,0-.78-.35-.78-.78V.78c0-.43,.35-.78,.78-.78s.78,.35,.78,.78V3.12c0,.43-.35,.78-.78,.78Z"/>
</svg>